<?xml version="1.0" encoding="UTF-8"?>
<!DOCTYPE svg PUBLIC "-//W3C//DTD SVG 1.1//EN" "http://www.w3.org/Graphics/SVG/1.1/DTD/svg11.dtd">
<!-- Creator: CorelDRAW X7 -->
<svg xmlns="http://www.w3.org/2000/svg" xml:space="preserve" width="10mm" height="10mm" version="1.1" style="shape-rendering:geometricPrecision; text-rendering:geometricPrecision; image-rendering:optimizeQuality; fill-rule:evenodd; clip-rule:evenodd"
viewBox="0 0 1000 1000"
 xmlns:xlink="http://www.w3.org/1999/xlink">
 <defs>
  <style type="text/css">
   <![CDATA[
    .str0 {stroke:#6872A6;stroke-width:20}
    .str1 {stroke:#912031;stroke-width:20}
    .fil0 {fill:none}
    .fil1 {fill:#6872A6}
   ]]>
  </style>
 </defs>
 <g id="Layer_x0020_1">
  <metadata id="CorelCorpID_0Corel-Layer"/>
  <path class="fil0 str0" d="M254 333l0 -27c0,-51 42,-93 93,-93l511 0c50,0 92,42 92,93l0 301c0,51 -42,93 -92,93l-511 0c-12,0 -23,-2 -33,-6"/>
  <path class="fil0 str0" d="M218 334l0 -54c0,-59 49,-108 108,-108l553 0c59,0 108,49 108,108l0 353c0,59 -49,108 -108,108l-553 0c-4,0 -7,0 -11,0"/>
  <rect class="fil0 str0" x="13" y="334" width="301" height="535" rx="65" ry="65"/>
  <line class="fil0 str0" x1="13" y1="476" x2="314" y2= "476" />
  <line class="fil0 str0" x1="13" y1="577" x2="314" y2= "577" />
  <circle class="fil1 str0" cx="98" cy="526" r="5"/>
  <circle class="fil1 str0" cx="159" cy="526" r="5"/>
  <circle class="fil1 str0" cx="220" cy="526" r="5"/>
  <rect class="fil0 str0" x="116" y="647" width="10.4822" height="106.625"/>
  <rect class="fil0 str0" x="200" y="647" width="10.4822" height="106.625"/>
  <line class="fil0 str0" x1="431" y1="860" x2="747" y2= "860" />
  <rect class="fil0 str0" x="514" y="741" width="142" height="119"/>
  <line class="fil0 str0" x1="314" y1="621" x2="943" y2= "621" />
  <polyline class="fil0 str1" points="515,486 456,428 515,369 "/>
  <polyline class="fil0 str1" points="679,486 738,428 679,369 "/>
  <line class="fil0 str1" x1="621" y1="366" x2="574" y2= "489" />
 </g>
</svg>
