<?xml version="1.0" encoding="UTF-8"?>
<!DOCTYPE svg PUBLIC "-//W3C//DTD SVG 1.1//EN" "http://www.w3.org/Graphics/SVG/1.1/DTD/svg11.dtd">
<!-- Creator: CorelDRAW X7 -->
<svg xmlns="http://www.w3.org/2000/svg" xml:space="preserve" width="28mm" height="6mm" version="1.1" style="shape-rendering:geometricPrecision; text-rendering:geometricPrecision; image-rendering:optimizeQuality; fill-rule:evenodd; clip-rule:evenodd"
viewBox="0 0 2800 600"
 xmlns:xlink="http://www.w3.org/1999/xlink">
 <defs>
  <style type="text/css">
   <![CDATA[
    .fil0 {fill:#912031}
   ]]>
  </style>
 </defs>
 <g id="Layer_x0020_1">
  <metadata id="CorelCorpID_0Corel-Layer"/>
  <g id="_1716215622560">
   <path class="fil0" d="M2553 5l0 36c5,-6 10,-13 15,-18l0 -1 1 0c6,-6 13,-12 21,-17l-37 0zm103 55c14,0 27,5 36,15l0 0c9,9 15,22 15,35 0,14 -6,27 -15,36l0 0c-9,9 -22,15 -36,15 -13,0 -26,-6 -35,-15l0 0c-10,-9 -15,-22 -15,-36 0,-13 5,-26 15,-35l0 0c9,-10 22,-15 35,-15zm-103 120l0 47c28,25 64,39 103,39 43,0 82,-17 110,-45l0 -52c-6,11 -13,21 -21,29l-1 1c-22,22 -53,36 -88,36 -34,0 -65,-14 -88,-36 -5,-6 -10,-12 -15,-19zm213 -129l0 -46 -43 0c8,5 15,11 22,17 8,9 15,19 21,29zm-56 6c-13,-14 -33,-23 -54,-23 -21,0 -40,9 -53,23l0 0c-14,13 -23,32 -23,53 0,21 9,41 23,54 13,14 32,23 53,23 22,0 41,-9 54,-23 14,-13 23,-32 23,-54 0,-21 -9,-40 -23,-53zm-157 207l0 68c31,14 67,22 103,22 40,0 77,-9 110,-26l0 -69c-31,23 -68,36 -110,36 -38,0 -73,-11 -103,-31zm0 99l0 62c33,10 67,16 103,16 39,0 76,-7 110,-19l0 -61c-33,14 -71,22 -110,22 -36,0 -71,-7 -103,-20zm0 92l0 114c33,8 68,12 103,12 38,0 75,-5 110,-13l0 -115c-34,11 -71,17 -110,17 -35,0 -70,-5 -103,-15z"/>
   <path class="fil0" d="M2261 366l142 0 -1 -1c-38,-39 -68,-86 -86,-138l-67 0 0 -58 53 0c-3,-19 -5,-39 -5,-59 0,-36 5,-71 15,-105l-114 0c-8,34 -12,69 -12,105 0,95 28,182 75,256zm177 -8l0 -84c-11,-15 -21,-31 -29,-47l-62 0c17,44 43,84 76,117 5,5 9,10 15,14zm-107 -189l59 0c-4,-19 -7,-38 -7,-59 0,-37 8,-72 21,-105l-61 0c-11,33 -17,69 -17,105 0,21 2,40 5,59zm89 0l50 0 0 -164 -34 0c-15,32 -23,68 -23,105 0,21 2,40 7,59zm-252 -164l-124 0 0 311c32,96 86,181 156,251 10,10 20,19 30,28l249 0 0 -18c-67,-25 -126,-64 -176,-113 -10,-11 -20,-21 -29,-33l-25 0 0 -32c-58,-81 -92,-181 -92,-289 0,-36 4,-71 11,-105zm311 541l0 -115 -166 0c3,4 7,8 11,12 44,44 96,79 155,103zm-435 -152l0 201 143 0 -8 -7c-55,-56 -101,-121 -135,-194z"/>
   <path class="fil0" d="M1371 256l1 3c47,83 78,177 87,277l18 59 149 0c0,-100 -17,-196 -49,-285l-22 71 -92 -284c-24,-32 -50,-63 -79,-92l-218 0 0 32c35,24 68,51 98,81 41,42 77,89 107,140l0 -2zm-205 -183l0 198c75,87 120,200 120,324l85 0 0 -275c-32,-68 -76,-129 -128,-181 -24,-24 -50,-46 -77,-66zm0 244l0 278 91 0c0,-104 -34,-200 -91,-278zm487 214l86 -275 0 339 188 0c-45,-91 -73,-196 -102,-299 -29,-106 -57,-209 -100,-291l-53 0 -81 261c34,83 55,172 62,265zm291 34l0 -560 -187 0c41,82 69,181 96,283 26,95 53,192 91,277zm-506 -545l-5 -15 -8 0c4,5 8,10 13,15z"/>
   <path class="fil0" d="M911 595l31 0c0,-43 -17,-82 -45,-110l0 0c-29,-28 -68,-46 -111,-46 -43,0 -82,18 -110,46 -28,28 -46,67 -46,110l32 0c0,-34 14,-65 36,-88l0 0 0 0c23,-22 54,-36 88,-36 35,0 66,14 88,36 23,23 37,54 37,88zm60 0l59 0c0,-67 -27,-128 -71,-172 -44,-44 -105,-72 -173,-72 -67,0 -128,28 -172,72 -44,44 -72,105 -72,172l59 0c0,-51 21,-97 55,-130 33,-34 79,-55 130,-55 51,0 98,21 131,55l0 0c34,33 54,79 54,130zm88 0l56 0 -54 -184c-12,-18 -26,-34 -41,-49 -60,-60 -142,-97 -234,-97 -91,0 -174,37 -233,97 -16,15 -29,32 -41,49l-54 184 55 0c0,-75 31,-143 80,-193 50,-49 118,-80 193,-80 76,0 144,31 193,80 50,50 80,118 80,193zm-19 -254l-49 -169c-62,-30 -131,-47 -205,-47 -73,0 -142,17 -204,47l-50 169c65,-65 155,-105 254,-105 100,0 189,40 254,105zm-60 -206l-38 -130 -311 0 -38 130c59,-25 125,-39 193,-39 69,0 134,14 194,39zm-270 460l26 0c0,-14 5,-26 15,-35l0 0c9,-10 21,-15 35,-15 14,0 27,5 36,15l0 0c9,9 15,21 15,35l26 0c0,-21 -9,-40 -23,-53 -14,-14 -33,-23 -54,-23 -21,0 -40,9 -53,22l-1 1c-13,13 -22,32 -22,53z"/>
   <path class="fil0" d="M836 374l-99 0 5 -19c14,-2 29,-4 44,-4 16,0 30,2 45,4l5 19zm-86 -49l15 -60c7,0 14,0 21,0 7,0 14,0 21,0l16 60c-12,-2 -24,-3 -37,-3 -12,0 -24,1 -36,3zm23 -89l13 -51 14 51c-5,0 -9,0 -14,0 -4,0 -8,0 -13,0z"/>
   <path class="fil0" d="M432 532l0 -117 -80 0c-23,56 -36,117 -36,180l111 0c0,-21 2,-42 5,-63zm-111 -117l-77 0 0 -170c-65,101 -103,221 -103,350l146 0c0,-63 12,-124 34,-180zm-77 -221l0 -189 -56 0c-63,65 -117,140 -157,223l0 367 81 0c0,-150 49,-289 132,-401zm-96 -189l-117 0 0 161c33,-58 72,-112 117,-161z"/>
  </g>
 </g>
</svg>
