<?xml version="1.0" encoding="UTF-8"?>
<!DOCTYPE svg PUBLIC "-//W3C//DTD SVG 1.1//EN" "http://www.w3.org/Graphics/SVG/1.1/DTD/svg11.dtd">
<!-- Creator: CorelDRAW -->
<svg xmlns="http://www.w3.org/2000/svg" xml:space="preserve" width="137.4mm" height="56.7mm" style="shape-rendering:geometricPrecision; text-rendering:geometricPrecision; image-rendering:optimizeQuality; fill-rule:evenodd; clip-rule:evenodd"
viewBox="0 0 137.4 56.7"
 xmlns:xlink="http://www.w3.org/1999/xlink">
 <defs>
  <style type="text/css">
   <![CDATA[
    .str0 {stroke:#2B2A29;stroke-width:0.2}
    .str1 {stroke:#2B2A29;stroke-width:0.2;stroke-linejoin:round}
    .fil1 {fill:#3A4392}
    .fil0 {fill:#F9CFB7}
   ]]>
  </style>
 </defs>
 <g id="Réteg_x0020_1">
  <metadata id="CorelCorpID_0Corel-Layer"/>
  <polygon class="fil0 str0" points="103.694,47.0373 82.006,47.0373 82.006,21.2789 103.301,21.2789 103.301,26.7854 89.9848,26.7854 89.9848,30.8869 102.346,30.8869 102.346,36.1126 89.9848,36.1126 89.9848,41.1693 103.694,41.1693 "/>
  <polygon class="fil0 str0" points="116.167,47.0653 108.189,47.0653 108.189,21.2509 116.167,21.2509 "/>
  <polygon class="fil0 str0" points="8.1658,46.4823 8.1939,20.7762 16.1726,20.7762 16.1726,40.1893 28.5341,40.1893 28.5341,46.4823 "/>
  <path class="fil1 str0" d="M55.8753 43.3822c-0.538,0.4738 -1.0929,0.9289 -1.6638,1.3641l-0.9504 -1.3533c0.5516,-0.4184 1.0869,-0.857 1.6054,-1.3144l1.0088 1.3036zm-4.8942 3.5144c-1.376,0.7937 -2.8195,1.4835 -4.3211,2.056l-0.6447 -1.5824c1.421,-0.5275 2.7865,-1.1647 4.0877,-1.9004l0.8781 1.4268zm-6.7501 2.8644c-1.9493,0.5585 -3.9783,0.9283 -6.0671,1.0842l-0.1305 -1.7464 0.0531 -0.0046c1.9436,-0.145 3.8311,-0.4803 5.645,-0.9854l0.4995 1.6522zm-10.2723 1.1095c-1.2968,-0.0812 -2.5714,-0.2442 -3.8187,-0.4838l0.1882 -1.7482c1.1854,0.234 2.3972,0.3945 3.6305,0.4766l0 1.7554zm-5.339 -0.8167c-1.0988,-0.2707 -2.174,-0.6013 -3.2218,-0.9883l0.3155 -1.7528c1.0531,0.4021 2.1361,0.7435 3.2448,1.02l-0.3385 1.7211zm-6.2706 -2.3103c-1.2606,-0.6313 -3.0063,-1.7372 -4.1588,-2.5318l1.0243 -1.4558c1.0642,0.7396 2.5949,1.7489 3.7578,2.3404l-0.6233 1.6472z"/>
  <path class="fil1 str0" d="M52.1149 38.5226c-4.287,3.8997 -9.9835,6.2769 -16.2354,6.2769 -5.5421,0 -10.6473,-1.8685 -14.7212,-5.0093l0.7197 -1.0432c3.8688,3.0007 8.7262,4.7874 14.0015,4.7874 5.9603,0 11.3874,-2.2808 15.458,-6.0164l0.7774 1.0046z"/>
  <path class="fil1 str0" d="M49.3641 34.9678c-3.5199,3.3196 -8.2643,5.3551 -13.4846,5.3551 -4.598,0 -8.8267,-1.5789 -12.1747,-4.2237l0.942 -1.3653c3.079,2.462 6.9836,3.9346 11.2327,3.9346 4.8391,0 9.2319,-1.9096 12.467,-5.0158l1.0176 1.3151z"/>
  <path class="fil1 str0" d="M46.608 31.4061c-2.7468,2.7435 -6.5395,4.4402 -10.7285,4.4402 -3.654,0 -7.0058,-1.2915 -9.6254,-3.4422l0.8877 -1.2867c2.3652,1.9796 5.412,3.1718 8.7377,3.1718 3.8305,0 7.2912,-1.5815 9.7666,-4.1263l0.9619 1.2432z"/>
  <path class="fil1 str0" d="M44.6825 28.9177c-2.2017,2.3473 -5.3308,3.8144 -8.803,3.8144 -2.9975,0 -5.7391,-1.0934 -7.8491,-2.9025l0.9176 -1.3301c1.8456,1.6343 4.2724,2.6268 6.9315,2.6268 3.103,0 5.8899,-1.3514 7.8058,-3.4972l0.9972 1.2886z"/>
  <path class="fil1 str0" d="M42.6265 26.2608c-1.6079,1.9365 -4.0333,3.1697 -6.747,3.1697 -2.302,0 -4.3962,-0.8876 -5.9601,-2.3389l0.9795 -1.4197c1.2769,1.2704 3.0369,2.0557 4.9806,2.0557 2.324,0 4.3857,-1.1226 5.6728,-2.855l1.0742 1.3882z"/>
  <polygon class="fil0 str1" points="54.3076,47.0666 47.6777,47.0666 47.6777,21.3057 58.2409,21.3057 62.1738,36.7574 66.2757,21.2496 76.6703,21.2496 76.6703,47.0666 70.1525,47.0666 70.1525,27.3176 65.1519,47.0666 59.1396,47.0666 54.3076,27.4301 "/>
  <path class="fil1 str0" d="M35.8795 16.8693c2.0961,0 3.7953,1.6992 3.7953,3.7953 0,2.0961 -1.6992,3.7953 -3.7953,3.7953 -2.0961,0 -3.7953,-1.6992 -3.7953,-3.7953 0,-2.0961 1.6992,-3.7953 3.7953,-3.7953z"/>
  <path class="fil1 str0" d="M112.418 5.0063c1.4193,0 2.8034,0.1505 4.1373,0.4364l-0.3298 1.6215c-1.2273,-0.2643 -2.5012,-0.4035 -3.8075,-0.4035 -0.4918,0 -0.9789,0.0199 -1.4607,0.0586l-0.0764 -1.6538c0.5072,-0.0393 1.0198,-0.0592 1.5371,-0.0592zm6.5399 1.1149c2.2425,0.7912 4.2984,1.9776 6.0842,3.4757l-1.0567 1.2723c-1.6551,-1.3897 -3.5641,-2.4868 -5.6473,-3.2121l0.6198 -1.5359zm-10.0476 0.8813c-1.7577,0.3473 -3.4233,0.9506 -4.9567,1.7692l-0.7072 -1.4977c1.6498,-0.872 3.4385,-1.5163 5.3244,-1.8909l0.3395 1.6194zm-6.6764 2.8147c-0.8039,0.5524 -1.5606,1.1685 -2.2629,1.8409l-1.0829 -1.2539c0.7719,-0.7328 1.6033,-1.4035 2.4862,-2.0042l0.8596 1.4172zm-3.6871 3.3713c-1.1591,1.3991 -2.1105,2.9766 -2.8071,4.6849l-1.4914 -0.7244c0.7716,-1.8628 1.8211,-3.5813 3.0972,-5.1037l1.2013 1.1432zm-3.4378 6.5075c-0.4524,1.5781 -0.6949,3.245 -0.6949,4.9686 0,0.5473 0.0249,1.0888 0.0727,1.6237l-1.6499 0.1237c-0.0509,-0.5757 -0.0773,-1.1584 -0.0773,-1.7474 0,-1.8813 0.2644,-3.7007 0.758,-5.4233l1.5914 0.4547zm-0.3263 8.6095c0.7031,3.4235 2.3783,6.4923 4.7241,8.9057l-1.2678 1.0676c-2.5499,-2.6548 -4.3616,-6.0239 -5.1044,-9.7778l1.6481 -0.1955zm5.7643 9.8943c1.3404,1.1764 2.8567,2.1573 4.5048,2.8971l-0.8573 1.4272c-1.7198,-0.7931 -3.305,-1.8276 -4.7133,-3.0595l1.0658 -1.2648zm26.3497 -26.8299c0.8461,0.921 1.6056,1.923 2.2653,2.993l-1.3144 1.0224c-0.6251,-1.0373 -1.352,-2.0061 -2.1665,-2.8933l1.2156 -1.1221zm3.2886 4.8764c0.824,1.7364 1.4019,3.6122 1.6867,5.5831l-1.6269 0.3128c-0.2512,-1.7916 -0.7664,-3.4983 -1.5044,-5.0803l1.4446 -0.8156zm1.8804 9.0615c-0.0566,1.7593 -0.3446,3.4602 -0.8343,5.0733l-1.5917 -0.453c0.4551,-1.4911 0.7222,-3.0644 0.7729,-4.6922l1.6531 0.0719zm-1.785 7.5747c-0.8318,1.8048 -1.9291,3.4621 -3.2419,4.9218l-1.3116 -1.0154c1.2478,-1.3688 2.2869,-2.9309 3.0678,-4.636l1.4857 0.7296zm-5.8222 7.3214c-2.0467,1.5882 -4.4155,2.7811 -6.9917,3.4641l-0.5106 -1.5767c2.4013,-0.6238 4.6078,-1.7309 6.5096,-3.211l0.9927 1.3236zm-8.8985 3.869c-1.0231,0.1645 -2.0726,0.25 -3.142,0.25 -1.9651,0 -3.8622,-0.2897 -5.6526,-0.8263l0.4866 -1.5816c1.6365,0.4893 3.3703,0.7535 5.166,0.7535 0.9847,0 1.9509,-0.0792 2.8927,-0.2314l0.2493 1.6358z"/>
  <path class="fil1 str0" d="M112.418 9.4829c8.3845,0 15.1816,6.7971 15.1816,15.1817 0,8.3846 -6.7971,15.1817 -15.1816,15.1817 -8.3846,0 -15.1817,-6.7971 -15.1817,-15.1817 0,-8.3846 6.7971,-15.1817 15.1817,-15.1817zm0 1.5571c7.5246,0 13.6245,6.1 13.6245,13.6246 0,7.5246 -6.0999,13.6245 -13.6245,13.6245 -7.5247,0 -13.6246,-6.0999 -13.6246,-13.6245 0,-7.5246 6.0999,-13.6246 13.6246,-13.6246z"/>
  <path class="fil1 str0" d="M112.418 12.5971c6.6646,0 12.0674,5.4028 12.0674,12.0675 0,6.6647 -5.4028,12.0674 -12.0674,12.0674 -6.6647,0 -12.0675,-5.4027 -12.0675,-12.0674 0,-6.6647 5.4028,-12.0675 12.0675,-12.0675zm0 1.6058c5.7778,0 10.4616,4.6839 10.4616,10.4617 0,5.7778 -4.6838,10.4617 -10.4616,10.4617 -5.7779,0 -10.4617,-4.6839 -10.4617,-10.4617 0,-5.7778 4.6838,-10.4617 10.4617,-10.4617z"/>
  <circle class="fil1 str0" cx="112.418" cy="24.6646" r="6.34067"/>
 </g>
</svg>
