<?xml version="1.0" encoding="UTF-8"?>
<!DOCTYPE svg PUBLIC "-//W3C//DTD SVG 1.1//EN" "http://www.w3.org/Graphics/SVG/1.1/DTD/svg11.dtd">
<!-- Creator: CorelDRAW X7 -->
<svg xmlns="http://www.w3.org/2000/svg" xml:space="preserve" width="10mm" height="10mm" version="1.1" style="shape-rendering:geometricPrecision; text-rendering:geometricPrecision; image-rendering:optimizeQuality; fill-rule:evenodd; clip-rule:evenodd"
viewBox="0 0 1000 1000"
 xmlns:xlink="http://www.w3.org/1999/xlink">
 <defs>
  <style type="text/css">
   <![CDATA[
    .str0 {stroke:#6872A6;stroke-width:20}
    .str1 {stroke:#912031;stroke-width:20}
    .fil0 {fill:none}
   ]]>
  </style>
 </defs>
 <g id="Layer_x0020_1">
  <metadata id="CorelCorpID_0Corel-Layer"/>
  <line class="fil0 str0" x1="1" y1="421" x2="511" y2= "421" />
  <line class="fil0 str0" x1="1" y1="818" x2="718" y2= "818" />
  <line class="fil0 str0" x1="1" y1="692" x2="897" y2= "692" />
  <line class="fil0 str0" x1="1" y1="755" x2="899" y2= "755" />
  <path class="fil0 str0" d="M511 421c107,-1 195,64 275,132 137,117 201,267 -68,265"/>
  <path class="fil0 str0" d="M625 490l81 0c28,19 54,41 80,63 34,29 64,61 85,91l-198 0c-17,0 -23,-16 -32,-32l-48 -90c-9,-15 14,-32 32,-32z"/>
  <rect class="fil0 str0" x="15" y="537" width="189" height="107"/>
  <rect class="fil0 str0" x="265" y="537" width="189" height="107"/>
  <path class="fil0 str0" d="M622 818c-3,26 -25,46 -52,46 -26,0 -48,-20 -51,-46l103 0z"/>
  <path class="fil0 str0" d="M442 818c-2,26 -24,46 -51,46 -26,0 -48,-20 -51,-46l102 0z"/>
  <path class="fil0 str0" d="M302 818c-2,26 -24,46 -51,46 -27,0 -49,-20 -51,-46l102 0z"/>
  <path class="fil0 str0" d="M139 818c-3,26 -25,46 -51,46 -27,0 -49,-20 -51,-46l102 0z"/>
  <g id="_1716223054064">
   <path class="fil0 str1" d="M796 513l0 0c20,-43 8,-92 -27,-121"/>
   <path class="fil0 str1" d="M746 489c8,-19 3,-41 -13,-54"/>
   <path class="fil0 str1" d="M851 538l0 0c32,-68 12,-147 -43,-193"/>
   <path class="fil0 str1" d="M907 564l0 0c43,-94 16,-202 -60,-265"/>
   <path class="fil0 str1" d="M962 589c54,-116 23,-255 -76,-337"/>
  </g>
  <polygon class="fil0 str0" points="266,302 358,184 450,302 358,421 "/>
  <line class="fil0 str0" x1="1" y1="184" x2="597" y2= "184" />
  <line class="fil0 str0" x1="1" y1="871" x2="982" y2= "871" />
 </g>
</svg>
