<?xml version="1.0" encoding="UTF-8"?>
<!DOCTYPE svg PUBLIC "-//W3C//DTD SVG 1.1//EN" "http://www.w3.org/Graphics/SVG/1.1/DTD/svg11.dtd">
<!-- Creator: CorelDRAW X7 -->
<svg xmlns="http://www.w3.org/2000/svg" xml:space="preserve" width="10mm" height="10mm" version="1.1" style="shape-rendering:geometricPrecision; text-rendering:geometricPrecision; image-rendering:optimizeQuality; fill-rule:evenodd; clip-rule:evenodd"
viewBox="0 0 1000 1000"
 xmlns:xlink="http://www.w3.org/1999/xlink">
 <defs>
  <style type="text/css">
   <![CDATA[
    .str0 {stroke:#6872A6;stroke-width:20}
    .str1 {stroke:#912031;stroke-width:20}
    .fil0 {fill:none}
   ]]>
  </style>
 </defs>
 <g id="Layer_x0020_1">
  <metadata id="CorelCorpID_0Corel-Layer"/>
  <path class="fil0 str0" d="M74 988l756 0c83,0 152,-68 152,-152l0 -229c0,-83 -69,-152 -152,-152l-821 0"/>
  <rect class="fil0 str0" x="355" y="143" width="360" height="270"/>
  <path class="fil0 str0" d="M494 413l79 0 0 -164c0,-22 -18,-40 -39,-40l0 0c-22,0 -40,18 -40,40l0 164z"/>
  <path class="fil0 str0" d="M603 413l79 0 0 -147c0,-22 -17,-40 -39,-40l0 0c-22,0 -40,18 -40,40l0 147z"/>
  <path class="fil0 str0" d="M384 413l80 0 0 -147c0,-22 -18,-40 -40,-40l0 0c-22,0 -40,18 -40,40l0 147z"/>
  <polyline class="fil0 str0" points="355,143 392,79 676,79 715,143 "/>
  <rect class="fil0 str0" x="469" y="105" width="7.97624" height="7.97624"/>
  <rect class="fil0 str0" x="506" y="105" width="101.496" height="7.97624"/>
  <g id="_1716214053888">
   <path class="fil0 str1" d="M848 661l0 0c-22,-21 -55,-24 -80,-8"/>
   <path class="fil0 str1" d="M823 687c-10,-9 -24,-10 -36,-3"/>
   <path class="fil0 str1" d="M876 632l0 0c-36,-33 -88,-38 -128,-13"/>
   <path class="fil0 str1" d="M903 604l0 0c-49,-47 -121,-52 -176,-19"/>
   <path class="fil0 str1" d="M930 575c-60,-58 -152,-67 -224,-24"/>
  </g>
  <g id="_1716214052800">
   <path class="fil0 str1" d="M244 102l0 0c-24,47 -13,103 25,137"/>
   <path class="fil0 str1" d="M300 130c-11,22 -6,47 11,62"/>
   <path class="fil0 str1" d="M183 70l0 0c-39,76 -20,165 40,220"/>
   <path class="fil0 str1" d="M122 39l0 0c-54,103 -28,227 54,301"/>
   <path class="fil0 str1" d="M61 7c-67,129 -38,287 69,384"/>
  </g>
  <line class="fil0 str0" x1="284" y1="540" x2="497" y2= "540" />
  <path class="fil0 str0" d="M497 540c66,1 74,-85 168,-85"/>
  <path class="fil0 str0" d="M497 540c66,1 74,-85 168,-85"/>
  <path class="fil0 str0" d="M115 455c67,-1 75,85 169,85"/>
  <polygon class="fil0 str0" points="715,413 878,413 878,310 715,310 "/>
  <polyline class="fil0 str0" points="715,272 858,272 878,310 "/>
  <rect class="fil0 str0" x="746" y="349" width="7.97624" height="63.9753"/>
  <rect class="fil0 str0" x="786" y="349" width="7.97624" height="7.97624"/>
  <rect class="fil0 str0" x="825" y="349" width="7.97624" height="7.97624"/>
  <g id="_1716214076448">
   <rect class="fil0 str0" x="473" y="783" width="360" height="170"/>
   <path class="fil0 str0" d="M612 953l79 0 0 -81c0,-22 -18,-40 -39,-40l0 0c-22,0 -40,18 -40,40l0 81z"/>
   <path class="fil0 str0" d="M721 953l79 0 0 -64c0,-22 -17,-40 -39,-40l0 0c-22,0 -40,18 -40,40l0 64z"/>
   <path class="fil0 str0" d="M502 953l80 0 0 -64c0,-22 -18,-40 -40,-40l0 0c-22,0 -40,18 -40,40l0 64z"/>
   <polyline class="fil0 str0" points="473,783 510,719 794,719 833,783 "/>
   <rect class="fil0 str0" x="587" y="745" width="7.97624" height="7.97624"/>
   <rect class="fil0 str0" x="624" y="745" width="101.496" height="7.97624"/>
  </g>
  <path class="fil0 str0" d="M79 988c-37,0 -66,-29 -66,-66 0,-36 29,-66 66,-66"/>
  <path class="fil0 str0" d="M285 856c36,0 66,-29 66,-66 0,-36 -30,-66 -66,-66"/>
  <line class="fil0 str0" x1="79" y1="856" x2="285" y2= "856" />
  <line class="fil0 str0" x1="285" y1="724" x2="15" y2= "724" />
 </g>
</svg>
